<mxfile host="app.diagrams.net" agent="Mozilla/5.0 (X11; Linux x86_64) AppleWebKit/537.36 (KHTML, like Gecko) Chrome/135.0.0.0 Safari/537.36" version="26.2.13">
  <diagram name="Page-1" id="c4acf3e9-155e-7222-9cf6-157b1a14988f">
    <mxGraphModel dx="2685" dy="1669" grid="1" gridSize="10" guides="1" tooltips="1" connect="1" arrows="1" fold="1" page="1" pageScale="1" pageWidth="850" pageHeight="1100" background="none" math="0" shadow="0">
      <root>
        <mxCell id="0" />
        <mxCell id="1" parent="0" />
        <mxCell id="CyD1STz1R4SX0CRq8nJk-5" value="" style="edgeStyle=orthogonalEdgeStyle;rounded=0;orthogonalLoop=1;jettySize=auto;html=1;endArrow=block;endFill=0;strokeWidth=1;endSize=10;" edge="1" parent="1" source="5d2195bd80daf111-18" target="CyD1STz1R4SX0CRq8nJk-4">
          <mxGeometry relative="1" as="geometry" />
        </mxCell>
        <mxCell id="CyD1STz1R4SX0CRq8nJk-19" value="" style="edgeStyle=orthogonalEdgeStyle;rounded=0;orthogonalLoop=1;jettySize=auto;html=1;fontFamily=Helvetica;fontSize=12;fontColor=default;labelBackgroundColor=none;endArrow=open;endFill=0;dashed=1;endSize=10;dashPattern=8 8;" edge="1" parent="1" source="5d2195bd80daf111-18" target="CyD1STz1R4SX0CRq8nJk-9">
          <mxGeometry relative="1" as="geometry" />
        </mxCell>
        <mxCell id="5d2195bd80daf111-18" value="&lt;p style=&quot;margin:0px;margin-top:4px;text-align:center;&quot;&gt;&lt;b style=&quot;&quot;&gt;class RouteModel&lt;/b&gt;&lt;/p&gt;&lt;hr size=&quot;1&quot;&gt;&amp;nbsp;public:&lt;br&gt;&lt;p style=&quot;margin:0px;margin-left:4px;&quot;&gt;RouteModel(const std::vector&amp;lt;std::byte&amp;gt;)&lt;br&gt;FindClosestNode(float, float):&amp;nbsp;&lt;span style=&quot;background-color: transparent; color: light-dark(rgb(0, 0, 0), rgb(255, 255, 255));&quot;&gt;Node &amp;amp;&lt;/span&gt;&lt;/p&gt;&lt;p style=&quot;margin:0px;margin-left:4px;&quot;&gt;SNodes():&amp;nbsp;&lt;span style=&quot;background-color: transparent; color: light-dark(rgb(0, 0, 0), rgb(255, 255, 255));&quot;&gt;auto &amp;amp;&lt;/span&gt;&lt;/p&gt;&lt;p style=&quot;margin:0px;margin-left:4px;&quot;&gt;path: std::vector&amp;lt;Node&amp;gt;&lt;/p&gt;&lt;hr size=&quot;1&quot;&gt;&lt;p style=&quot;margin:0px;margin-left:4px;&quot;&gt;private:&lt;br&gt;CreateNodeToRoadHashmap(): void&lt;/p&gt;&lt;p style=&quot;margin:0px;margin-left:4px;&quot;&gt;node_to_road: std::unordered_map&amp;lt;int, std::vector&amp;lt;const Model::Road *&amp;gt;&amp;gt;&lt;/p&gt;&lt;p style=&quot;margin:0px;margin-left:4px;&quot;&gt;m_nodes: std::vector&amp;lt;Nodes&amp;gt;&lt;/p&gt;" style="verticalAlign=top;align=left;overflow=fill;fontSize=12;fontFamily=Helvetica;html=1;rounded=0;shadow=0;comic=0;labelBackgroundColor=none;strokeWidth=1" parent="1" vertex="1">
          <mxGeometry x="-160" y="87" width="410" height="183" as="geometry" />
        </mxCell>
        <mxCell id="CyD1STz1R4SX0CRq8nJk-20" style="edgeStyle=orthogonalEdgeStyle;rounded=0;orthogonalLoop=1;jettySize=auto;html=1;fontFamily=Helvetica;fontSize=12;fontColor=default;labelBackgroundColor=none;dashed=1;dashPattern=8 8;endArrow=open;endFill=0;endSize=10;entryX=0.57;entryY=0.987;entryDx=0;entryDy=0;entryPerimeter=0;" edge="1" parent="1" source="CyD1STz1R4SX0CRq8nJk-2" target="CyD1STz1R4SX0CRq8nJk-9">
          <mxGeometry relative="1" as="geometry">
            <mxPoint x="550" y="360" as="targetPoint" />
            <Array as="points">
              <mxPoint x="-450" y="380" />
              <mxPoint x="504" y="380" />
            </Array>
          </mxGeometry>
        </mxCell>
        <mxCell id="CyD1STz1R4SX0CRq8nJk-2" value="&lt;p style=&quot;margin:0px;margin-top:4px;text-align:center;&quot;&gt;&lt;b style=&quot;&quot;&gt;class RoutePlanner&lt;/b&gt;&lt;/p&gt;&lt;hr size=&quot;1&quot;&gt;&lt;p style=&quot;margin:0px;margin-left:4px;&quot;&gt;public:&lt;/p&gt;&lt;p style=&quot;margin:0px;margin-left:4px;&quot;&gt;RoutePlanner(RouteModel, float, float, float, float)&lt;/p&gt;&lt;p style=&quot;margin:0px;margin-left:4px;&quot;&gt;GetDistance() const: void&lt;/p&gt;&lt;p style=&quot;margin:0px;margin-left:4px;&quot;&gt;AStarSearch(): void&lt;/p&gt;&lt;p style=&quot;margin:0px;margin-left:4px;&quot;&gt;AddNeighbor(RouteModel::Node *): void&lt;/p&gt;&lt;p style=&quot;margin:0px;margin-left:4px;&quot;&gt;CalculateHValue(RouteModel::Node const *)&lt;/p&gt;&lt;p style=&quot;margin:0px;margin-left:4px;&quot;&gt;ConstructFinalPath(&lt;span style=&quot;background-color: transparent; color: light-dark(rgb(0, 0, 0), rgb(255, 255, 255));&quot;&gt;RouteModel::Node *&lt;/span&gt;&lt;span style=&quot;background-color: transparent; color: light-dark(rgb(0, 0, 0), rgb(255, 255, 255));&quot;&gt;):&amp;nbsp;&lt;/span&gt;&lt;span style=&quot;background-color: transparent; color: light-dark(rgb(0, 0, 0), rgb(255, 255, 255));&quot;&gt;std::vector&amp;lt;RouteModel::Node&amp;gt;&lt;/span&gt;&lt;/p&gt;&lt;p style=&quot;margin:0px;margin-left:4px;&quot;&gt;&lt;span style=&quot;background-color: transparent; color: light-dark(rgb(0, 0, 0), rgb(255, 255, 255));&quot;&gt;NextNode(): RouteModel::Node *&lt;/span&gt;&lt;/p&gt;&lt;hr size=&quot;1&quot;&gt;&lt;p style=&quot;margin:0px;margin-left:4px;&quot;&gt;private:&lt;/p&gt;&lt;p style=&quot;margin:0px;margin-left:4px;&quot;&gt;open_list: std::vector&amp;lt;RouteModel::Node *&amp;gt;&lt;br&gt;start_node: RouteModel::Node *&lt;/p&gt;&lt;p style=&quot;margin:0px;margin-left:4px;&quot;&gt;end_node: RouteModel::Node *&lt;/p&gt;&lt;p style=&quot;margin:0px;margin-left:4px;&quot;&gt;distance: float&lt;/p&gt;&lt;p style=&quot;margin:0px;margin-left:4px;&quot;&gt;m_model: RouteModel &amp;amp;&lt;/p&gt;" style="verticalAlign=top;align=left;overflow=fill;fontSize=12;fontFamily=Helvetica;html=1;rounded=0;shadow=0;comic=0;labelBackgroundColor=none;strokeWidth=1" vertex="1" parent="1">
          <mxGeometry x="-640" y="87" width="400" height="253" as="geometry" />
        </mxCell>
        <mxCell id="CyD1STz1R4SX0CRq8nJk-3" value="&lt;p style=&quot;margin:0px;margin-top:4px;text-align:center;&quot;&gt;&lt;b style=&quot;&quot;&gt;class Render&lt;/b&gt;&lt;/p&gt;&lt;hr size=&quot;1&quot;&gt;&lt;p style=&quot;margin:0px;margin-left:4px;&quot;&gt;public:&lt;/p&gt;&lt;p style=&quot;margin:0px;margin-left:4px;&quot;&gt;Render(RouteModel &amp;amp;)&lt;/p&gt;&lt;p style=&quot;margin:0px;margin-left:4px;&quot;&gt;Display(io2d::output_surface &amp;amp;): void&lt;/p&gt;&lt;hr size=&quot;1&quot;&gt;&lt;p style=&quot;margin:0px;margin-left:4px;&quot;&gt;private:&lt;/p&gt;&lt;p style=&quot;margin:0px;margin-left:4px;&quot;&gt;m_model: RouteModel &amp;amp;&lt;/p&gt;&lt;p style=&quot;margin:0px;margin-left:4px;&quot;&gt;~~~&lt;/p&gt;&lt;p style=&quot;margin:0px;margin-left:4px;&quot;&gt;{DRAWING_FUNCTIONS}&lt;/p&gt;&lt;p style=&quot;margin:0px;margin-left:4px;&quot;&gt;~~~&lt;/p&gt;&lt;p style=&quot;margin:0px;margin-left:4px;&quot;&gt;m_RoadReps: std::unordered_map&amp;lt;Model::Road::Type, RoadRep&amp;gt;&lt;/p&gt;&lt;p style=&quot;margin:0px;margin-left:4px;&quot;&gt;m_LanduseBrushes: std::unordered_map&amp;lt;Model::Landuse::Type, io2d::brush&amp;gt;&lt;/p&gt;" style="verticalAlign=top;align=left;overflow=fill;fontSize=12;fontFamily=Helvetica;html=1;rounded=0;shadow=0;comic=0;labelBackgroundColor=none;strokeWidth=1" vertex="1" parent="1">
          <mxGeometry x="-1160" y="87" width="430" height="253" as="geometry" />
        </mxCell>
        <mxCell id="CyD1STz1R4SX0CRq8nJk-18" value="" style="edgeStyle=orthogonalEdgeStyle;rounded=0;orthogonalLoop=1;jettySize=auto;html=1;fontFamily=Helvetica;fontSize=12;fontColor=default;labelBackgroundColor=none;endArrow=open;endFill=0;dashed=1;dashPattern=8 8;endSize=10;" edge="1" parent="1" source="CyD1STz1R4SX0CRq8nJk-4">
          <mxGeometry relative="1" as="geometry">
            <mxPoint x="350" y="-80" as="targetPoint" />
          </mxGeometry>
        </mxCell>
        <mxCell id="CyD1STz1R4SX0CRq8nJk-4" value="&lt;p style=&quot;margin:0px;margin-top:4px;text-align:center;&quot;&gt;&lt;b style=&quot;&quot;&gt;class Model&lt;/b&gt;&lt;/p&gt;&lt;hr size=&quot;1&quot;&gt;&lt;p style=&quot;margin:0px;margin-left:4px;&quot;&gt;public:&lt;/p&gt;&lt;p style=&quot;margin:0px;margin-left:4px;&quot;&gt;Model(const std::vector&amp;lt;std::bytes&amp;gt; &amp;amp;)&lt;/p&gt;&lt;p style=&quot;margin:0px;margin-left:4px;&quot;&gt;MetricScale() const noexcept: auto&lt;/p&gt;&lt;p style=&quot;margin:0px;margin-left:4px;&quot;&gt;&lt;span style=&quot;background-color: transparent; color: light-dark(rgb(0, 0, 0), rgb(255, 255, 255));&quot;&gt;~~~&lt;/span&gt;&lt;/p&gt;&lt;p style=&quot;margin: 0px 0px 0px 4px;&quot;&gt;Nodes() const&amp;nbsp;&lt;span style=&quot;background-color: transparent; color: light-dark(rgb(0, 0, 0), rgb(255, 255, 255));&quot;&gt;noexcept&lt;/span&gt;&lt;span style=&quot;background-color: transparent; color: light-dark(rgb(0, 0, 0), rgb(255, 255, 255));&quot;&gt;: auto &amp;amp;&lt;/span&gt;&lt;/p&gt;&lt;p style=&quot;margin: 0px 0px 0px 4px;&quot;&gt;&lt;span style=&quot;background-color: transparent; color: light-dark(rgb(0, 0, 0), rgb(255, 255, 255));&quot;&gt;Ways() const&amp;nbsp;&lt;/span&gt;&lt;span style=&quot;background-color: transparent; color: light-dark(rgb(0, 0, 0), rgb(255, 255, 255));&quot;&gt;noexcept: auto &amp;amp;&lt;/span&gt;&lt;/p&gt;&lt;p style=&quot;margin:0px;margin-left:4px;&quot;&gt;&lt;span style=&quot;background-color: transparent; color: light-dark(rgb(0, 0, 0), rgb(255, 255, 255));&quot;&gt;~~~&lt;/span&gt;&lt;/p&gt;&lt;hr size=&quot;1&quot;&gt;&lt;p style=&quot;margin:0px;margin-left:4px;&quot;&gt;private:&lt;/p&gt;&lt;p style=&quot;margin:0px;margin-left:4px;&quot;&gt;AdjustCoordinates(): void&lt;/p&gt;&lt;p style=&quot;margin:0px;margin-left:4px;&quot;&gt;BuildRings(Multipolygon &amp;amp;): void&lt;/p&gt;&lt;p style=&quot;margin:0px;margin-left:4px;&quot;&gt;LoadData(const std::vector&amp;lt;std::byte&amp;gt; &amp;amp;): void&lt;/p&gt;&lt;p style=&quot;margin:0px;margin-left:4px;&quot;&gt;m_Nodes:&amp;nbsp;&lt;span style=&quot;background-color: transparent; color: light-dark(rgb(0, 0, 0), rgb(255, 255, 255));&quot;&gt;std::vector&amp;lt;Node&amp;gt;&lt;/span&gt;&lt;/p&gt;&lt;p style=&quot;margin:0px;margin-left:4px;&quot;&gt;&lt;span style=&quot;background-color: transparent; color: light-dark(rgb(0, 0, 0), rgb(255, 255, 255));&quot;&gt;m_Ways:&amp;nbsp;&lt;/span&gt;&lt;span style=&quot;background-color: transparent; color: light-dark(rgb(0, 0, 0), rgb(255, 255, 255));&quot;&gt;std::vector&amp;lt;Way&amp;gt;&lt;/span&gt;&lt;/p&gt;" style="verticalAlign=top;align=left;overflow=fill;fontSize=12;fontFamily=Helvetica;html=1;rounded=0;shadow=0;comic=0;labelBackgroundColor=none;strokeWidth=1" vertex="1" parent="1">
          <mxGeometry x="-20" y="-276" width="260" height="240" as="geometry" />
        </mxCell>
        <mxCell id="CyD1STz1R4SX0CRq8nJk-15" style="edgeStyle=orthogonalEdgeStyle;rounded=0;orthogonalLoop=1;jettySize=auto;html=1;entryX=0.519;entryY=0.962;entryDx=0;entryDy=0;fontFamily=Helvetica;fontSize=12;fontColor=default;labelBackgroundColor=none;endArrow=block;endFill=0;endSize=10;entryPerimeter=0;" edge="1" parent="1" source="CyD1STz1R4SX0CRq8nJk-9" target="CyD1STz1R4SX0CRq8nJk-33">
          <mxGeometry relative="1" as="geometry">
            <mxPoint x="445" y="-40" as="targetPoint" />
          </mxGeometry>
        </mxCell>
        <mxCell id="CyD1STz1R4SX0CRq8nJk-9" value="&lt;p style=&quot;margin:0px;margin-top:4px;text-align:center;&quot;&gt;&lt;b style=&quot;&quot;&gt;class RouteModel::Node&lt;/b&gt;&lt;/p&gt;&lt;hr size=&quot;1&quot;&gt;&lt;p style=&quot;margin:0px;margin-left:4px;&quot;&gt;public:&lt;/p&gt;&lt;p style=&quot;margin:0px;margin-left:4px;&quot;&gt;Node()&lt;br&gt;Node(int, RouteModel *, Model::Node)&lt;/p&gt;&lt;p style=&quot;margin:0px;margin-left:4px;&quot;&gt;distance(Node): float&lt;/p&gt;&lt;hr size=&quot;1&quot;&gt;&lt;p style=&quot;margin:0px;margin-left:4px;&quot;&gt;private:&lt;/p&gt;&lt;p style=&quot;margin:0px;margin-left:4px;&quot;&gt;index: int&lt;/p&gt;&lt;p style=&quot;margin:0px;margin-left:4px;&quot;&gt;FindNeighbor(std::vector&amp;lt;int&amp;gt;):&amp;nbsp;&lt;span style=&quot;background-color: transparent; color: light-dark(rgb(0, 0, 0), rgb(255, 255, 255));&quot;&gt;Node *&lt;/span&gt;&lt;span style=&quot;background-color: transparent; color: light-dark(rgb(0, 0, 0), rgb(255, 255, 255));&quot;&gt;&amp;nbsp;&lt;/span&gt;&lt;/p&gt;&lt;p style=&quot;margin:0px;margin-left:4px;&quot;&gt;parent_model: RouteModel *&lt;/p&gt;" style="verticalAlign=top;align=left;overflow=fill;fontSize=12;fontFamily=Helvetica;html=1;rounded=0;shadow=0;comic=0;labelBackgroundColor=none;strokeWidth=1" vertex="1" parent="1">
          <mxGeometry x="350" y="80" width="270" height="223" as="geometry" />
        </mxCell>
        <mxCell id="CyD1STz1R4SX0CRq8nJk-21" style="edgeStyle=orthogonalEdgeStyle;rounded=0;orthogonalLoop=1;jettySize=auto;html=1;entryX=0.212;entryY=0.011;entryDx=0;entryDy=0;entryPerimeter=0;fontFamily=Helvetica;fontSize=12;fontColor=default;labelBackgroundColor=none;dashed=1;dashPattern=8 8;endArrow=open;endFill=0;endSize=10;" edge="1" parent="1" source="CyD1STz1R4SX0CRq8nJk-3" target="5d2195bd80daf111-18">
          <mxGeometry relative="1" as="geometry">
            <Array as="points">
              <mxPoint x="-860" y="20" />
              <mxPoint x="-73" y="20" />
            </Array>
          </mxGeometry>
        </mxCell>
        <mxCell id="CyD1STz1R4SX0CRq8nJk-25" value="&lt;font style=&quot;font-size: 12px;&quot;&gt;&lt;b&gt;struct RoadRep&lt;/b&gt;&lt;/font&gt;" style="swimlane;html=1;fontStyle=0;childLayout=stackLayout;horizontal=1;startSize=26;fillColor=none;horizontalStack=0;resizeParent=1;resizeLast=0;collapsible=1;marginBottom=0;swimlaneFillColor=#ffffff;rounded=0;shadow=0;comic=0;labelBackgroundColor=none;strokeWidth=1;fontFamily=Verdana;fontSize=10;align=center;" vertex="1" parent="1">
          <mxGeometry x="-1080" y="-140" width="160" height="104" as="geometry" />
        </mxCell>
        <mxCell id="CyD1STz1R4SX0CRq8nJk-26" value="brush: io2d::brush" style="text;html=1;strokeColor=none;fillColor=none;align=left;verticalAlign=top;spacingLeft=4;spacingRight=4;whiteSpace=wrap;overflow=hidden;rotatable=0;points=[[0,0.5],[1,0.5]];portConstraint=eastwest;" vertex="1" parent="CyD1STz1R4SX0CRq8nJk-25">
          <mxGeometry y="26" width="160" height="26" as="geometry" />
        </mxCell>
        <mxCell id="CyD1STz1R4SX0CRq8nJk-27" value="dash: io2d::dashes" style="text;html=1;strokeColor=none;fillColor=none;align=left;verticalAlign=top;spacingLeft=4;spacingRight=4;whiteSpace=wrap;overflow=hidden;rotatable=0;points=[[0,0.5],[1,0.5]];portConstraint=eastwest;" vertex="1" parent="CyD1STz1R4SX0CRq8nJk-25">
          <mxGeometry y="52" width="160" height="26" as="geometry" />
        </mxCell>
        <mxCell id="CyD1STz1R4SX0CRq8nJk-28" value="metric_width: float" style="text;html=1;strokeColor=none;fillColor=none;align=left;verticalAlign=top;spacingLeft=4;spacingRight=4;whiteSpace=wrap;overflow=hidden;rotatable=0;points=[[0,0.5],[1,0.5]];portConstraint=eastwest;" vertex="1" parent="CyD1STz1R4SX0CRq8nJk-25">
          <mxGeometry y="78" width="160" height="26" as="geometry" />
        </mxCell>
        <mxCell id="CyD1STz1R4SX0CRq8nJk-30" style="edgeStyle=orthogonalEdgeStyle;rounded=0;orthogonalLoop=1;jettySize=auto;html=1;entryX=0.569;entryY=1.038;entryDx=0;entryDy=0;entryPerimeter=0;fontFamily=Helvetica;fontSize=12;fontColor=default;labelBackgroundColor=none;dashed=1;dashPattern=8 8;endArrow=open;endFill=0;endSize=9;" edge="1" parent="1" source="CyD1STz1R4SX0CRq8nJk-3" target="CyD1STz1R4SX0CRq8nJk-28">
          <mxGeometry relative="1" as="geometry" />
        </mxCell>
        <mxCell id="CyD1STz1R4SX0CRq8nJk-31" value="&lt;font style=&quot;font-size: 12px;&quot;&gt;&lt;b&gt;struct Model::Node&lt;/b&gt;&lt;/font&gt;" style="swimlane;html=1;fontStyle=0;childLayout=stackLayout;horizontal=1;startSize=26;fillColor=none;horizontalStack=0;resizeParent=1;resizeLast=0;collapsible=1;marginBottom=0;swimlaneFillColor=#ffffff;rounded=0;shadow=0;comic=0;labelBackgroundColor=none;strokeWidth=1;fontFamily=Verdana;fontSize=10;align=center;" vertex="1" parent="1">
          <mxGeometry x="350" y="-140" width="160" height="80" as="geometry" />
        </mxCell>
        <mxCell id="CyD1STz1R4SX0CRq8nJk-32" value="x: double" style="text;html=1;strokeColor=none;fillColor=none;align=left;verticalAlign=top;spacingLeft=4;spacingRight=4;whiteSpace=wrap;overflow=hidden;rotatable=0;points=[[0,0.5],[1,0.5]];portConstraint=eastwest;" vertex="1" parent="CyD1STz1R4SX0CRq8nJk-31">
          <mxGeometry y="26" width="160" height="26" as="geometry" />
        </mxCell>
        <mxCell id="CyD1STz1R4SX0CRq8nJk-33" value="y: double" style="text;html=1;strokeColor=none;fillColor=none;align=left;verticalAlign=top;spacingLeft=4;spacingRight=4;whiteSpace=wrap;overflow=hidden;rotatable=0;points=[[0,0.5],[1,0.5]];portConstraint=eastwest;" vertex="1" parent="CyD1STz1R4SX0CRq8nJk-31">
          <mxGeometry y="52" width="160" height="26" as="geometry" />
        </mxCell>
      </root>
    </mxGraphModel>
  </diagram>
</mxfile>
